<?xml version="1.0" standalone="no"?>
<!DOCTYPE svg PUBLIC "-//W3C//DTD SVG 20010904//EN"
 "http://www.w3.org/TR/2001/REC-SVG-20010904/DTD/svg10.dtd">
<svg version="1.0" xmlns="http://www.w3.org/2000/svg"
 width="360.000000pt" height="360.000000pt" viewBox="0 0 360.000000 360.000000"
 preserveAspectRatio="xMidYMid meet">

<g transform="translate(0.000000,360.000000) scale(0.100000,-0.100000)"
fill="#000000" stroke="none">
<path d="M2220 2700 c99 -11 190 -11 190 0 0 6 -48 9 -127 8 -112 -1 -120 -2
-63 -8z"/>
<path d="M2452 2674 c10 -22 9 -27 -5 -35 -12 -7 -17 -23 -17 -60 0 -40 -5
-55 -25 -74 -22 -23 -31 -25 -125 -25 -135 0 -236 -22 -345 -75 -155 -75 -245
-164 -245 -241 0 -95 147 -176 346 -191 58 -5 99 -13 101 -19 3 -8 -208 -270
-241 -300 0 -1 -14 -4 -30 -8 -28 -7 -25 -2 35 66 74 84 179 214 179 222 0 4
-15 6 -32 6 -44 0 -152 26 -189 46 -17 8 -33 14 -35 11 -3 -2 16 -53 41 -112
25 -60 42 -112 38 -116 -24 -23 -35 -7 -75 110 -52 150 -64 162 -163 164 -54
2 -70 -1 -79 -15 -21 -33 4 -53 67 -53 31 0 60 -4 65 -10 10 -11 72 -216 72
-239 0 -9 -24 -33 -52 -55 -49 -37 -55 -39 -73 -26 -181 132 -412 120 -561
-29 -77 -77 -115 -161 -121 -269 -9 -130 25 -225 111 -315 92 -96 196 -137
332 -130 70 4 94 10 158 41 79 40 151 108 187 179 58 114 62 253 11 362 l-29
62 27 32 c31 38 39 40 33 9 -6 -32 58 -89 150 -133 97 -46 119 -44 78 7 -32
42 -51 87 -51 123 0 34 10 45 185 197 177 154 185 163 185 198 0 20 -7 47 -17
60 -17 24 -125 79 -200 102 -69 20 -56 37 34 46 32 3 67 12 78 19 11 8 31 14
45 14 23 0 26 -5 36 -57 6 -32 21 -82 34 -110 l22 -53 55 0 c30 0 101 7 158
16 102 16 103 16 132 -5 36 -27 98 -38 118 -21 25 20 19 65 -10 78 -14 6 -25
17 -25 23 0 7 -14 9 -42 5 -79 -13 -243 -17 -283 -9 -56 12 -70 44 -70 156 0
77 3 90 20 103 27 20 64 10 97 -26 37 -40 54 -38 78 10 11 22 27 40 35 40 11
0 15 11 15 40 0 43 13 50 51 29 47 -25 65 41 29 110 -37 73 -179 151 -276 151
-33 0 -33 -1 -22 -26z m-942 -1041 c19 -8 51 -27 70 -41 l35 -27 -90 -11 -90
-11 80 -2 80 -1 -27 -27 c-20 -20 -44 -29 -100 -38 l-73 -12 55 -2 55 -2 -32
-28 c-32 -30 -26 -29 -218 -44 -24 -2 -10 -5 35 -7 41 -2 82 -4 90 -6 8 -1 19
-2 24 -3 5 -1 -3 -11 -18 -22 -33 -26 -32 -62 1 -67 16 -2 55 27 149 110 69
62 132 114 138 116 13 3 66 -86 66 -111 0 -11 -17 -17 -70 -22 -98 -10 -98
-25 -1 -25 l81 0 0 -38 0 -39 -67 -10 -68 -10 64 -1 64 -2 -7 -32 c-3 -17 -7
-33 -9 -34 -1 -1 -99 -7 -217 -14 -118 -6 -219 -13 -225 -15 -5 -2 40 -4 100
-4 152 -1 305 -12 305 -22 0 -5 -14 -24 -31 -44 l-31 -35 -102 -1 c-117 -1
-180 -17 -76 -19 36 -1 76 -5 90 -9 25 -7 24 -7 -10 -20 -104 -37 -229 -20
-327 44 -169 111 -197 340 -59 492 41 46 137 100 198 113 51 10 119 3 168 -17z"/>
<path d="M2140 2580 c-129 -3 -228 -8 -220 -12 8 -3 115 -9 238 -11 206 -4
253 0 226 21 -5 4 -115 5 -244 2z"/>
<path d="M1510 2480 c-15 -5 37 -8 130 -9 85 -1 198 -4 251 -7 83 -6 97 -5
102 10 6 15 -14 16 -226 15 -128 -1 -243 -5 -257 -9z"/>
<path d="M1390 2360 c-135 -4 -270 -9 -300 -10 -67 -4 257 -17 468 -19 141 -1
153 0 150 17 -4 21 -1 21 -318 12z"/>
<path d="M1148 2171 c-141 -4 -259 -9 -263 -12 -4 -5 559 -23 740 -24 13 0 21
8 23 23 4 25 26 25 -500 13z"/>
<path d="M2580 1996 c-36 -6 -65 -16 -65 -21 0 -6 6 -32 14 -58 8 -28 10 -51
5 -56 -5 -4 -71 -16 -147 -25 l-139 -16 -53 -47 c-30 -26 -52 -49 -50 -51 1
-2 74 11 162 27 88 17 163 31 168 31 10 0 -354 -355 -387 -379 -17 -12 -28
-10 -81 13 -76 32 -81 32 -75 1 4 -17 1 -25 -8 -25 -9 0 -14 12 -14 34 0 25
-7 39 -22 50 -12 9 -23 14 -25 12 -3 -2 3 -29 12 -60 15 -50 19 -56 43 -56
l27 0 -28 -26 c-36 -33 -50 -70 -42 -111 7 -38 56 -83 90 -83 23 0 42 -16 32
-26 -3 -3 -22 -1 -43 5 -28 8 -40 7 -45 -1 -11 -17 -1 -28 25 -28 16 0 26 -7
29 -21 5 -19 10 -20 59 -14 29 4 55 11 56 16 2 5 21 9 42 9 39 0 59 20 37 38
-20 16 -86 23 -107 12 -29 -15 -26 6 3 25 30 19 47 56 47 98 0 54 -38 93 -105
107 -16 3 -25 9 -20 12 15 9 84 -17 111 -43 l23 -22 228 221 c200 194 230 219
241 205 22 -30 13 -47 -34 -67 -59 -24 -153 -111 -186 -173 -108 -201 -27
-457 176 -556 84 -41 158 -52 262 -37 159 23 281 108 343 240 37 81 42 215 11
303 -42 120 -124 203 -245 249 -48 18 -79 23 -152 22 l-93 -1 -16 56 c-33 111
-42 151 -36 155 18 10 119 15 132 6 21 -13 3 -40 -38 -60 -34 -16 -44 -32 -36
-54 9 -22 27 -25 69 -10 52 17 94 62 101 106 l6 35 -45 5 c-25 3 -58 15 -73
27 -29 23 -47 24 -144 7z m230 -356 c13 0 13 -1 0 -10 -11 -7 -6 -10 21 -10
38 0 103 -23 114 -39 3 -6 -23 -19 -57 -30 l-63 -21 92 4 c86 4 94 3 108 -17
27 -38 19 -44 -82 -54 l-98 -10 107 -1 c103 -2 108 -3 124 -27 9 -14 14 -29
10 -32 -4 -4 -52 -9 -106 -11 -55 -3 -100 -8 -100 -13 0 -4 48 -10 108 -11
l107 -3 3 -41 c4 -49 -4 -53 -108 -56 -41 -1 -50 -3 -25 -5 102 -8 125 -14
125 -32 0 -46 -14 -49 -235 -58 l-210 -8 145 -6 c80 -4 171 -7 203 -8 54 -1
57 -2 47 -20 -22 -41 -72 -61 -161 -62 -79 -2 -81 -2 -27 -8 31 -3 60 -9 63
-13 4 -4 -10 -15 -31 -24 -29 -13 -65 -18 -139 -19 -89 0 -106 3 -155 27 -67
33 -142 106 -172 167 -31 62 -32 176 -2 242 27 58 77 115 133 151 61 38 77 37
85 -9 4 -21 9 -45 11 -53 3 -9 -7 -23 -23 -33 l-27 -18 32 6 c30 6 32 4 42
-31 11 -42 8 -54 -17 -54 -9 0 -24 -5 -32 -11 -11 -8 -4 -9 28 -6 23 3 42 4
42 2 0 -2 3 -10 6 -18 4 -12 -15 -16 -108 -23 l-113 -8 114 -9 c97 -7 116 -11
130 -29 34 -42 86 3 56 48 -14 22 -75 255 -75 288 0 15 40 26 75 20 11 -2 27
-4 35 -4z"/>
<path d="M1137 1879 c-164 -4 -300 -9 -302 -11 -3 -2 188 -9 422 -16 235 -6
428 -10 429 -9 1 1 4 11 6 22 3 19 -3 20 -127 21 -71 1 -264 -2 -428 -7z"/>
<path d="M780 1750 c-119 -5 -122 -5 -60 -12 36 -4 151 -11 256 -14 189 -7
191 -6 197 15 5 21 3 21 -131 19 -76 -1 -193 -5 -262 -8z"/>
<path d="M2065 1659 c-30 -27 -45 -50 -45 -66 0 -29 39 -123 51 -123 5 0 9 18
9 40 0 24 11 62 25 90 26 51 33 100 15 100 -6 0 -31 -19 -55 -41z"/>
<path d="M745 1546 c-171 -10 -183 -12 -120 -18 39 -4 129 -10 200 -14 72 -4
135 -7 140 -8 6 0 11 11 13 27 3 23 0 27 -20 25 -13 0 -108 -6 -213 -12z"/>
<path d="M703 1345 c-111 -6 -205 -13 -208 -16 -4 -5 349 -29 418 -29 23 0 27
4 27 30 0 22 -4 30 -17 29 -10 -1 -109 -7 -220 -14z"/>
<path d="M2161 1306 c11 -10 129 -16 129 -6 0 6 -27 10 -67 10 -36 0 -64 -2
-62 -4z"/>
<path d="M2223 1223 c15 -2 39 -2 55 0 15 2 2 4 -28 4 -30 0 -43 -2 -27 -4z"/>
<path d="M725 1203 c-55 -2 -103 -7 -108 -12 -5 -5 58 -11 140 -15 81 -4 156
-9 166 -12 13 -4 17 1 17 20 0 25 -2 26 -57 24 -32 -1 -103 -4 -158 -5z"/>
<path d="M2235 1159 c55 -11 85 -11 85 1 0 6 -27 10 -62 9 -60 -1 -61 -2 -23
-10z"/>
<path d="M805 1041 c-59 -6 -59 -6 40 -13 149 -12 175 -10 175 7 0 12 -15 15
-77 13 -43 -1 -105 -4 -138 -7z"/>
<path d="M1978 991 c-75 -3 -139 -9 -142 -12 -4 -3 71 -9 166 -13 95 -3 224
-9 286 -13 l113 -6 -12 27 -12 26 -131 -2 c-72 -1 -193 -4 -268 -7z"/>
</g>
</svg>
