<?xml version="1.0" standalone="no"?>
<!DOCTYPE svg PUBLIC "-//W3C//DTD SVG 20010904//EN"
 "http://www.w3.org/TR/2001/REC-SVG-20010904/DTD/svg10.dtd">
<svg version="1.0" xmlns="http://www.w3.org/2000/svg"
 width="860.000000pt" height="1060.000000pt" viewBox="0 0 860.000000 1060.000000"
 preserveAspectRatio="xMidYMid meet">

<g transform="translate(0.000000,1060.000000) scale(0.100000,-0.100000)"
fill="#000000" stroke="none">
<path d="M4803 10186 c-80 -20 -151 -61 -248 -143 -158 -134 -231 -184 -272
-189 -32 -4 -50 2 -118 45 -44 27 -125 86 -180 131 -160 129 -261 166 -425
157 -151 -8 -205 -35 -461 -229 -161 -122 -210 -142 -344 -142 -82 0 -119 5
-206 31 -132 39 -293 73 -381 80 -213 18 -337 -177 -242 -378 43 -90 83 -132
259 -268 82 -64 202 -168 265 -231 116 -115 204 -237 548 -752 40 -59 81 -112
91 -118 13 -7 397 -10 1175 -10 l1154 0 30 25 c16 13 64 80 107 147 360 565
575 816 840 983 77 48 118 86 167 158 50 73 68 125 68 196 0 150 -130 265
-300 264 -65 0 -98 -8 -245 -58 -150 -51 -181 -59 -269 -63 -161 -7 -260 31
-396 154 -190 173 -431 255 -617 210z"/>
<path d="M3005 7836 c-16 -7 -70 -60 -119 -117 -307 -361 -620 -665 -1241
-1205 -157 -137 -383 -364 -496 -499 -356 -424 -602 -900 -738 -1425 -59 -226
-111 -590 -111 -774 0 -119 36 -429 71 -606 137 -705 564 -1375 1189 -1865
494 -388 1139 -654 1864 -770 606 -96 1223 -96 1786 1 430 74 830 193 1200
356 995 439 1672 1274 1829 2258 42 259 55 425 54 700 0 213 -4 296 -22 425
-70 520 -249 974 -540 1375 -186 257 -380 452 -936 939 -357 314 -538 486
-883 845 -180 187 -340 347 -357 358 -29 17 -83 18 -1275 18 -1004 -1 -1251
-3 -1275 -14z m1452 -949 c18 -9 45 -33 60 -54 l28 -36 5 -276 5 -275 110 -21
c433 -86 703 -247 947 -565 97 -127 110 -159 109 -268 -1 -171 -145 -312 -317
-312 -104 0 -157 22 -230 94 -34 34 -71 82 -84 106 -60 119 -165 236 -262 293
-56 32 -179 74 -233 79 l-40 3 -3 -552 c-2 -518 -1 -553 15 -561 10 -5 68 -24
128 -41 203 -59 543 -171 642 -211 120 -49 213 -111 292 -195 218 -234 322
-504 323 -840 1 -233 -38 -411 -130 -590 -199 -387 -585 -625 -1137 -700 -66
-9 -123 -19 -127 -21 -5 -3 -8 -86 -8 -185 0 -189 -3 -202 -49 -252 -46 -51
-77 -61 -181 -61 -83 0 -101 3 -138 24 -26 15 -54 42 -68 66 -23 39 -24 49
-24 222 0 208 6 195 -98 206 -99 9 -256 44 -377 83 -411 131 -700 382 -911
790 -56 108 -58 114 -58 190 0 64 5 89 28 138 33 72 93 137 161 173 45 24 60
27 155 27 91 0 111 -3 148 -23 90 -48 129 -96 204 -252 38 -80 89 -172 113
-205 90 -126 223 -230 366 -285 80 -31 200 -60 245 -60 l24 0 0 624 c0 487 -3
626 -12 633 -7 5 -62 22 -123 38 -264 67 -551 174 -702 263 -274 161 -441 423
-483 756 -24 187 3 437 64 599 153 406 533 665 1122 766 62 10 117 22 123 25
8 5 11 89 11 268 0 215 3 266 16 293 20 43 54 74 101 91 52 19 206 14 250 -9z"/>
<path d="M3970 5643 c-212 -37 -378 -141 -448 -279 -42 -84 -55 -153 -50 -275
3 -91 7 -112 35 -169 57 -121 151 -201 305 -260 96 -37 258 -74 270 -62 4 4 7
242 6 528 l-3 519 -45 1 c-25 1 -56 0 -70 -3z"/>
<path d="M4550 3147 c0 -333 3 -608 8 -610 19 -11 183 16 258 42 114 39 185
83 269 166 113 111 165 240 165 405 0 162 -44 264 -160 374 -53 49 -96 78
-172 115 -102 49 -236 93 -323 107 l-45 6 0 -605z"/>
</g>
</svg>
