<?xml version="1.0" standalone="no"?>
<!DOCTYPE svg PUBLIC "-//W3C//DTD SVG 20010904//EN"
 "http://www.w3.org/TR/2001/REC-SVG-20010904/DTD/svg10.dtd">
<svg version="1.0" xmlns="http://www.w3.org/2000/svg"
 width="920.000000pt" height="568.000000pt" viewBox="0 0 920.000000 568.000000"
 preserveAspectRatio="xMidYMid meet">

<g transform="translate(0.000000,568.000000) scale(0.100000,-0.100000)"
fill="#000000" stroke="none">
<path d="M3504 5669 c-43 -12 -92 -65 -105 -112 -12 -46 -4 -91 23 -132 11
-16 185 -157 386 -312 l364 -283 -717 0 -717 0 -40 -22 c-21 -12 -49 -38 -61
-58 l-22 -35 -3 -1130 c-2 -784 0 -1145 8 -1180 6 -29 22 -63 37 -79 48 -52
71 -56 337 -56 l245 0 3 -223 c3 -219 3 -224 28 -260 14 -21 43 -46 66 -57 40
-20 64 -20 1255 -20 760 0 1227 4 1248 10 40 11 76 43 99 85 13 25 16 68 16
245 l0 215 262 5 c292 6 291 5 342 80 l22 33 0 1167 0 1167 -22 33 c-13 18
-36 43 -51 54 -28 21 -37 21 -752 26 l-723 5 352 273 c194 150 365 285 379
300 109 115 -18 312 -168 262 -20 -7 -249 -177 -508 -378 -260 -201 -479 -366
-487 -366 -8 0 -226 164 -485 364 -258 200 -485 369 -505 376 -41 15 -63 16
-106 3z m2751 -2119 l0 -950 -1657 0 -1658 0 0 950 0 950 1658 0 1657 0 0
-950z m-625 -1395 l0 -115 -1030 0 -1030 0 0 115 0 115 1030 0 1030 0 0 -115z"/>
<path d="M7040 1743 c-8 -3 -121 -111 -251 -240 l-236 -235 -6 40 c-8 48 -40
90 -83 108 -28 12 -331 14 -1866 14 -1725 0 -1835 -1 -1868 -18 -19 -9 -45
-32 -57 -51 -23 -34 -23 -34 -23 -445 0 -395 1 -412 20 -444 12 -19 38 -41 63
-52 41 -19 85 -20 1582 -20 l1540 0 3 -92 c4 -108 24 -163 80 -221 63 -65 102
-80 217 -81 98 0 102 1 167 37 195 109 557 422 1045 903 227 224 243 244 228
301 -8 35 -437 470 -482 489 -34 15 -48 16 -73 7z m10 -173 c24 -24 26 -77 3
-102 -38 -42 -123 -9 -123 49 0 61 78 95 120 53z m-103 -267 l-47 -48 -65 65
-65 64 47 48 48 48 65 -65 65 -65 -48 -47z m-140 -140 l-47 -48 -65 65 -65 64
47 48 48 48 65 -65 65 -65 -48 -47z m290 85 l63 -62 -47 -48 -47 -48 -63 62
-62 62 42 47 c23 26 44 47 47 48 2 1 33 -27 67 -61z m-430 -225 l-47 -48 -65
65 -65 64 47 48 48 48 65 -65 65 -65 -48 -47z m306 -25 l-48 -48 -63 63 -64
64 49 46 48 46 62 -62 63 -61 -47 -48z m295 79 l62 -63 -48 -47 -48 -47 -64
65 -64 65 44 45 c24 25 47 45 50 45 3 0 34 -28 68 -63z m-3885 -69 c10 -5 27
-24 37 -41 51 -82 -6 -177 -105 -177 -102 0 -158 99 -102 181 36 53 109 69
170 37z m479 12 c54 -15 88 -61 88 -117 0 -38 -5 -50 -34 -79 -30 -30 -40 -34
-85 -34 -42 0 -56 5 -85 30 -66 59 -53 154 28 191 49 22 42 21 88 9z m2095
-18 c36 -26 57 -79 48 -122 -10 -46 -67 -90 -118 -91 -23 0 -272 -1 -553 -1
-454 0 -514 1 -542 16 -36 19 -62 62 -62 104 0 41 39 95 80 109 26 9 173 12
575 10 l540 -2 32 -23z m876 -144 l-48 -48 -63 63 -64 64 49 46 48 46 62 -62
63 -61 -47 -48z m295 79 l62 -63 -48 -47 -48 -47 -64 65 -64 65 44 45 c24 25
47 45 50 45 3 0 34 -28 68 -63z m-140 -140 l62 -63 -48 -47 -48 -47 -64 65
-64 65 44 45 c24 25 47 45 50 45 3 0 34 -28 68 -63z m-578 -67 c0 -63 2 -70
20 -70 18 0 20 7 20 70 0 78 4 81 68 54 49 -20 90 -60 113 -109 32 -70 29 -75
-51 -75 -63 0 -70 -2 -70 -20 0 -18 7 -20 71 -20 l71 0 -7 -27 c-10 -42 -43
-91 -78 -117 -34 -25 -97 -49 -98 -38 0 4 0 35 1 70 1 60 1 62 -24 62 -25 0
-26 -1 -26 -70 l0 -70 -27 6 c-79 18 -149 88 -167 167 l-6 27 69 0 c60 0 69 2
74 20 5 19 0 20 -64 20 -65 0 -69 1 -69 23 0 30 52 112 82 129 25 14 78 36 91
37 4 1 7 -30 7 -69z"/>
</g>
</svg>
