<?xml version="1.0" standalone="no"?>
<!DOCTYPE svg PUBLIC "-//W3C//DTD SVG 20010904//EN"
 "http://www.w3.org/TR/2001/REC-SVG-20010904/DTD/svg10.dtd">
<svg version="1.0" xmlns="http://www.w3.org/2000/svg"
 width="600.000000pt" height="600.000000pt" viewBox="0 0 600.000000 600.000000"
 preserveAspectRatio="xMidYMid meet">

<g transform="translate(0.000000,600.000000) scale(0.100000,-0.100000)"
fill="#000000" stroke="none">
<path d="M1305 4123 c5 -34 45 -411 192 -1805 26 -247 50 -448 54 -448 4 0 41
21 83 48 71 44 75 49 71 77 -3 17 -53 480 -110 1030 -58 550 -109 1029 -113
1065 l-7 65 -88 3 -87 3 5 -38z"/>
<path d="M3786 4138 c-3 -13 -10 -72 -16 -133 -5 -60 -42 -407 -80 -770 -39
-362 -70 -662 -70 -666 0 -4 32 4 71 17 39 13 77 24 85 24 8 0 17 6 19 13 3 6
38 334 80 727 41 393 77 736 81 763 l6 47 -86 0 c-81 0 -86 -1 -90 -22z"/>
<path d="M3552 3719 l-84 -88 -45 -438 c-25 -241 -46 -443 -48 -450 -6 -19
-95 77 -95 102 0 20 61 542 75 644 l7 43 -65 -46 c-73 -52 -176 -103 -245
-120 l-47 -12 -6 -145 c-4 -79 -7 -151 -8 -159 0 -8 -12 1 -26 21 -26 40 -42
49 -84 49 -47 0 -82 -35 -101 -101 -12 -42 -4 -35 19 15 49 111 143 93 183
-36 32 -100 -17 -208 -94 -208 -62 0 -103 48 -118 139 l-8 46 -1 -59 c0 -32 4
-77 11 -99 16 -53 67 -107 102 -107 31 0 82 24 89 42 14 35 -1 -127 -29 -313
l-16 -105 -33 -1 c-73 -2 -125 -59 -125 -137 0 -36 6 -52 31 -81 17 -19 37
-35 45 -35 23 0 26 -22 10 -73 l-14 -48 66 6 c126 11 125 11 152 62 86 165
241 340 383 433 38 25 70 54 72 65 7 32 136 1277 133 1279 -2 1 -41 -37 -86
-85z m-243 -945 c17 -14 38 -47 48 -75 10 -27 21 -49 25 -49 12 0 9 -108 -4
-152 -6 -22 -28 -57 -47 -79 -67 -75 -156 -58 -209 39 -27 49 -41 151 -24 185
5 12 20 43 32 69 12 27 33 57 47 68 37 29 94 26 132 -6z"/>
<path d="M2937 3533 c-37 -86 -65 -158 -63 -161 6 -5 256 196 256 206 0 12
-104 112 -116 112 -6 0 -41 -71 -77 -157z"/>
<path d="M1875 3604 c-14 -15 -25 -32 -25 -38 0 -6 7 -1 15 11 9 12 26 29 38
38 12 8 16 15 9 15 -7 0 -24 -12 -37 -26z"/>
<path d="M1979 3614 c13 -9 32 -35 42 -58 19 -42 26 -37 10 7 -11 28 -49 67
-65 67 -6 0 0 -7 13 -16z"/>
<path d="M1835 3348 c34 -112 124 -135 183 -48 27 41 16 49 -34 25 -43 -20
-83 -13 -114 21 -29 30 -43 31 -35 2z"/>
<path d="M2679 2675 c-63 -35 -53 -132 16 -155 64 -21 124 35 110 101 -12 54
-77 82 -126 54z"/>
<path d="M4187 2464 c-419 -114 -811 -335 -1113 -626 -136 -131 -145 -130 -95
12 28 80 28 81 7 76 -11 -3 -55 -10 -96 -17 -41 -7 -76 -13 -78 -15 -2 -1 24
-35 58 -76 42 -49 57 -74 47 -76 -8 -2 -59 15 -113 36 -107 42 -208 71 -349
99 -72 14 -139 18 -335 17 -300 0 -408 -17 -175 -27 160 -7 307 -26 445 -58
109 -25 280 -79 280 -88 0 -4 -48 -31 -107 -59 -106 -50 -108 -51 -114 -29
-10 36 -36 82 -56 98 -17 13 -17 13 -2 -6 34 -41 51 -88 45 -123 -15 -97 -115
-95 -146 3 -9 29 -10 29 -5 -7 l6 -36 -43 5 c-45 6 -159 34 -193 48 -39 16 31
-33 103 -73 l72 -38 -33 -16 c-31 -15 -36 -14 -96 13 -34 16 -89 45 -122 65
-56 34 -64 36 -115 29 -53 -6 -58 -5 -117 34 -84 54 -208 112 -254 118 -53 7
-207 -55 -268 -109 -39 -35 -45 -45 -45 -80 0 -34 6 -46 35 -74 126 -119 539
-211 1100 -245 233 -14 748 -6 965 16 584 58 939 182 912 321 -2 13 -22 40
-43 59 l-39 35 61 77 c34 43 101 141 150 218 82 128 88 140 68 143 -12 2 -41
-2 -65 -8 -37 -11 -52 -24 -100 -89 -32 -42 -84 -106 -117 -143 l-59 -68 -55
0 -54 0 73 89 c41 49 84 109 98 133 l24 43 -65 -59 c-73 -68 -175 -137 -252
-170 l-52 -23 -244 13 c-133 7 -245 15 -247 17 -8 8 177 162 292 244 192 138
374 238 694 386 48 22 30 20 -73 -9z"/>
</g>
</svg>
